# xmcd
#
# Track frame offsets:
#	150
#	9352
#	24310
#	39607
#	53202
#	65910
#	80695
#	95347
#	108690
#	118760
#	128125
#	140910
#	150292
#	163692
#	172440
#
# Disc length: 2475 seconds
#
# Revision: 4
# Processed by: cddbd v1.5.2PL0 Copyright (c) Steve Scherf et al.
# Submitted via: EZCDAudioConverter 3.1.5.1
#
DISCID=d309a90f
DTITLE=Μάνος Χατζιδάκης - Η Λαική Αγορά CD 2
DYEAR=1987
DGENRE=Έντεχνο
TTITLE0=Γιώργος Νταλάρας - 	Οι Κολασμένοι
TTITLE1=Βασίλης Λέκκας	 - Ο Ταχυδρόμος Πέθανε
TTITLE2=Ηλίας Λιούγκος	 - Ξημερώνει
TTITLE3=Βασίλης Λέκκας	 - Τσάμικος
TTITLE4=Γιώργος Νταλάρας	 - Χελιδόνι Σε Κλουβί
TTITLE5=Έλλη Πασπαλά	 - Κάθε Τρελό Παιδί
TTITLE6=Βασίλης Λέκκας	 - Ο Γιάννης Ο Φονιάς
TTITLE7=Έλλη Πασπαλά	 - Κοίτα Με Στα Μάτια
TTITLE8=Ηλίας Λιούγκος	 - Το Τραγούδι  Της Σειρήνας (Με Τ' Άσπρο Μου Μαντήλι)
TTITLE9=Έλλη Πασπαλά	 - Νανούρισμα (Νάνι Του Ρήγα Το Παιδί)
TTITLE10=Έλλη Πασπαλά	 - Συνέβη Στην Αθήνα
TTITLE11=Ηλίας Λιούγκος	 - Σαν Σφυρίξεις Τρεις Φορές
TTITLE12=Βασίλης Λέκκας	 - Με Την Ελλάδα Καραβοκύρη
TTITLE13=Έλλη Πασπαλά	 - Ο Υμηττός
TTITLE14=Βασίλης Λέκκας, Έλλη Πασπαλά, Ηλίας Λιούγκος	 - Τα Λουστράκια
EXTD=
EXTT0=
EXTT1=
EXTT2=
EXTT3=
EXTT4=
EXTT5=
EXTT6=
EXTT7=
EXTT8=
EXTT9=
EXTT10=
EXTT11=
EXTT12=
EXTT13=
EXTT14=
PLAYORDER=
